<?xml version="1.0" encoding="utf-8"?>
<!-- Generator: Adobe Illustrator 25.4.1, SVG Export Plug-In . SVG Version: 6.00 Build 0)  -->
<svg version="1.1" id="Capa_1" xmlns="http://www.w3.org/2000/svg" xmlns:xlink="http://www.w3.org/1999/xlink" x="0px" y="0px"
	 viewBox="0 0 2000 2000" style="enable-background:new 0 0 2000 2000;" xml:space="preserve">
<style type="text/css">
	.st0{fill:url(#SVGID_1_);}
	.st1{fill:#103955;}
	.st2{fill:#96C5CB;}
	.st3{fill:#4A8597;}
	.st4{fill:#0E293E;}
</style>
<radialGradient id="SVGID_1_" cx="796.5555" cy="577" r="564.4899" gradientUnits="userSpaceOnUse">
	<stop  offset="0" style="stop-color:#96C5CB"/>
	<stop  offset="0.4899" style="stop-color:#4A8597"/>
	<stop  offset="1" style="stop-color:#0E293E"/>
</radialGradient>
<path class="st0" d="M1324.38,871.57c6.98-2.39,16.94-7.25,24.4-17.13c9.13-12.08,9.64-25.18,10.11-37.88
	c0.21-5.67,0.18-16.63-6.78-44.12c-4.01-15.84-7.58-29.95-14.52-46.7c-7.25-17.52-21.06-44.85-47.4-73.78
	c-12.19,5.57-26.59,2.35-35.01-7.7c-7.97-9.49-9.04-23.23-2.6-34.1c-30.37-27.53-79.16-64.03-147.13-86.64
	c-20.19-6.72-39.36-11.31-57-14.42c-7.81-1.38-15.05,4.44-15.45,12.36l-0.02,0.26c-0.33,6.44,4.03,12.18,10.33,13.58
	c35.7,7.93,99.35,26,151.68,65.1c24.68,18.44,50.8,44.52,59.2,52.9c21.78,21.75,32.86,32.95,41.92,48.74
	c10.73,18.68,18.97,41.75,25.48,60c0.93,2.6,3.12,8.78,5.63,17.03c0,0,13.44,44.11,5.52,55.76c-1.97,2.9-4.31,4.96-6.16,6.29
	c-1.85,1.34-3.21,1.95-3.21,1.95c-8.05,4.6-16.45,4.45-21.19,3.95c-2.31-28.49-9.4-65.05-28.29-103.13
	c-14.94-30.12-31.91-50.43-40.55-60.64c-6.57-7.76-26.62-30.69-58.56-54.03c-14.97-10.93-29.09-19.43-41.28-25.97
	c-6.11-3.28-13.72-1.15-17.28,4.8l-0.14,0.23c-3.79,6.34-1.54,14.55,4.94,18.11c21.91,12.01,49.82,30.5,77.09,58.39
	c10.46,10.69,29.26,30.16,45.56,58.74c54.54,95.64,26.12,196.99,24,204.15c-12.35,41.59-32.98,71.45-47.11,88.89
	c-7.71-8.03-15.41-16.05-23.11-24.08c9.2-10.96,21.2-27.51,30.88-49.7c23.19-53.15,17.54-103.06,12.89-126.67
	c-18.49-93.97-94.41-143.73-115.73-157.7c-20.1-13.17-38.42-21.42-51.3-26.45c4.88-10.71,5.83-19.43,5.92-24.96
	c0.34-19.81-9.75-29.88-72.55-95.53c-4.75-4.97-14.03-14.68-29.08-19.36c-2.54-0.39-6.34-0.91-10.95-1.28
	c-25.74-2.06-45.64,3.08-56.6,6.02C844.15,534.74,785.3,577,785.3,577c-49.96,35.87-79.41,73.32-88.3,85.04
	c-41.31,54.45-52.79,98.17-55.7,110.52c-6.19,26.21-13.45,59.09,5.33,82.96c7.01,8.91,15.84,14.28,23.46,17.58
	c1.68,0.74,1.59,3.15-0.15,3.73c-10.26,3.43-17,8.42-21.61,13.5c-29.53,32.59-9.57,111.02,50,194.97
	c11.04-5.89,24.65-3.95,33.45,4.69c9.15,8.99,11.11,23.25,4.66,34.55c21.15,20.88,55.09,49.55,103.09,72.59
	c35.99,17.27,69.32,26.31,95.66,31.18c8.44,1.56,16.29-4.76,16.6-13.34l0.01-0.29c0.25-7.12-4.87-13.31-11.91-14.4
	c-24.08-3.72-43.6-9.4-57.81-14.34c-79.09-27.46-126.56-78.04-147.21-100.57c-11.48-12.52-26.13-28.69-40.54-53.56
	c-19.87-34.31-49.65-103.04-25.06-126.76c3.69-3.56,10.12-7.56,21.95-8.27c1.9,25.66,8.15,64.48,28.89,106.59
	c5.76,11.7,27.98,54.78,74.97,94.82c27.49,23.42,54.6,38.25,75.56,47.57c6.49,2.89,14.1,0.1,17.18-6.31l0.11-0.24
	c3.18-6.63,0.31-14.61-6.4-17.62c-12.92-5.79-27.59-13.55-42.9-24c-20-13.65-36.35-27.01-47.55-39.03
	c3.97-3.63,9.13-8.59,13.33-13.03c4.39-4.65,8.18-10.1,11.7-14.46c13.38,13.2,32.14,29.87,56.59,44.15
	c18.51,10.81,35.94,18.17,50.67,23.26c-2.41,5.63-5.47,15.23-4.05,26.81c3.56,29.25,32.29,43.38,34.87,44.6
	c16.17,17.73,29.47,32.06,39.11,42.37c5.69,6.09,7.34,7.81,10.22,9.93c15.52,11.38,36.16,11.58,58.41,7.45
	c104.49-19.4,178.18-84.05,178.18-84.05c39.49-34.64,61.25-67.57,73.19-85.92c0,0,46.02-70.77,45.48-131.11
	c-0.1-10.98-1.89-21.78-8.33-31.89c-7.51-11.77-18.44-18.07-26.23-21.37C1322.53,874.59,1322.64,872.17,1324.38,871.57z
	 M1215.15,837.19c2.14,9.79,3.19,18.74,3.63,26.48c-9.43-10.37-18.87-20.74-28.3-31.11c6.32-5.14,12.64-10.28,18.97-15.41
	C1211.53,823.04,1213.52,829.74,1215.15,837.19z M1113.89,701c12.89,8.93,22.81,17.68,30.81,25.33
	c14.18,13.57,34.86,35.74,56.3,68.67c-4.68,2.93-9.43,5.96-14.22,9.11c-4.45,2.92-8.8,5.83-13.04,8.74
	c-4.94-6.48-10.38-13.2-16.37-20.07c-5.9-6.78-11.74-13.03-17.41-18.75c-0.75,2.5-2.06,5.84-4.4,9.34c-3.22,4.85-6.99,7.9-9.52,9.63
	c30.42,35.26,60.84,70.52,91.26,105.78c0.27,5.51,0.18,12.08-0.74,19.41c-1.12,8.83-3.15,16.35-5.21,22.31
	c-11.2-12.88-24.83-28.8-40.13-47.28c-27.22-32.88-56.29-64.22-83.33-97.25c-12-14.65-24.9-30.78-47.33-39.12
	c-12.43-4.61-25.66-6.06-32.45-6.52c-12.53-0.85-23.35,0.28-31.69,1.8c-1.56,0.28-2.57-1.6-1.48-2.76
	c8.29-8.76,16.58-17.53,24.88-26.3c8.73-1.2,20.74-1.8,34.56,0.78c26.7,5,44.75,18.98,53.14,26.48c6.67-3.75,13.33-7.5,20-11.26
	c-3.42-4.83-7.65-9.8-12.87-14.54c-25.36-23-57.32-25-70.69-25.01c7.95-8.45,15.91-16.89,23.86-25.33
	c6.31,0.62,15.26,1.99,25.53,5.3C1090.68,685.07,1102.5,693.11,1113.89,701z M1160.67,960.11c-0.84-7.43-5.4-12.51-8-15.33
	c-13.04-14.15-30.7-33.17-52.34-55.67c0.42,4,0.8,8.12,1.12,12.34c0.27,3.62,0.49,7.18,0.66,10.66
	c-26.9,44.47-71.35,69.99-113.7,64.45c-21.31-2.8-37.59-12.86-48-21.18c-1.31-1.05-2.52-2.18-3.67-3.4
	c-58.96-62.54-136.84-145.2-138.63-147.42c-0.45-0.55-0.84-1.14-0.84-1.14c-0.72-1.07-1.61-2.68-2.16-4.75
	c-2.8-10.58,6.91-20.06,7.67-20.78c24.81-35.34,67.26-82.42,132.67-106c8.21-2.96,16.31-5.38,24.22-7.33
	c-39.26,41.03-78.52,82.07-117.78,123.11c-1.16,1.3-5.59,6.59-5.67,14.66c-0.08,8.36,4.55,13.86,5.67,15.11
	c36.75,37.18,73.5,74.35,110.26,111.53c5.82,5.89,12.7,10.69,20.35,13.89c0,0,16.74,7.33,35.91,5.25
	c37.71-4.1,58.75-43.1,60.29-46.07c7.66-6.98,15.31-13.95,22.97-20.93c-6.82-6.93-13.63-13.85-20.45-20.78
	c-9-34.32-41.34-57.63-76.66-55.33c-35.51,2.32-64.64,29.91-68.89,65.33l-27.78-28.44c5.12-8.71,13.57-21.1,26.67-33.33
	c12-11.22,31.36-29.31,60.24-33.41c26.08-3.71,48.13,5.67,61.41,13.49c6.57,3.87,12.45,8.79,17.5,14.5
	c41.03,46.4,82.05,92.8,123.07,139.19c2.95,2.96,7.89,8.85,8.44,16.89c0.48,7.04-2.62,12.54-4.44,15.56
	c-25.42,42-55.56,64.22-55.56,64.22c-13.83,10.21-34.81,23.48-63.11,34c25.63-29.04,51.26-58.07,76.89-87.11
	C1153.21,981.72,1161.99,971.83,1160.67,960.11z M776.67,859c-0.18-7.49,0.3-16.61,2.41-26.74c1.03-5,2.32-9.55,3.7-13.63
	c38.76,40.35,77.53,80.69,116.3,121.04c3.77,1.31,10.93,4.38,17.48,11.26c7.4,7.77,10.01,16.21,10.96,20.14
	c2.16,2.93,4.45,5.53,6.81,7.86c27.08,26.64,70.57,23.34,91.86,19.93c3.56-0.57,6.81,2.13,6.93,5.73l0.1,2.97
	c-6,7.49-12,14.98-18,22.48c-12.04,1.37-30.32,1.96-51.55-3.26c-28.72-7.07-48.59-21.27-58.97-29.93
	c-12.98,4.81-27.3,0.46-34.66-10.07c-6.06-8.68-6.6-20.38-1.48-30.22C837.93,924.04,807.3,891.52,776.67,859z M803.08,920.85
	c-6.18,5.53-12.35,11.06-18.52,16.59c-2.47-5.37-5.3-13.13-6.52-22.81c-0.91-7.18-0.69-13.46-0.15-18.37
	C786.29,904.46,794.68,912.65,803.08,920.85z M949.33,875.61c0-26.54,22.12-48.05,49.39-48.05c27.28,0,49.39,21.51,49.39,48.05
	s-22.11,48.06-49.39,48.06C971.45,923.67,949.33,902.15,949.33,875.61z M1047.94,612.06c1.66,1.92,6.48,7.49,7.06,15.39
	c1.09,14.97-13.84,27.1-18.44,31.03c-20.39,17.4-74.15,75.37-152.02,161.74c-3.11,3.45-8.56,3.33-11.52-0.25
	c-3.62-4.4-7.24-8.8-10.86-13.2c-2.44-2.96-2.3-7.26,0.34-10.05c27.97-29.55,56.85-59.35,86.65-89.35
	c22.06-22.21,44.01-43.9,65.83-65.1c2.2-2.14,0.99-5.88-2.05-6.3c-0.03,0-0.05,0-0.08-0.01c-51.89-7.03-100.4,13.03-139.85,39.41
	c-7.7-10.37-15.41-20.74-23.11-31.11c6.08-4.45,17.34-12.28,32.46-20.1C946.79,590.84,1025.61,586.26,1047.94,612.06z M693,846.78
	c-5.11,0.92-18.26,2.59-26.52-5.19c-7.08-6.67-7.37-17.01-6.52-27.85c2.6-32.92,14.92-59.9,20.7-72.14c0,0,28.12-59.54,80.78-112.6
	c0,0,23.08-21.6,59.82-44.02c36.75-22.41,87.15-45.63,141.82-48.87c4.44-0.26,8.29,0.33,11.27,1.1c3.7,0.96,7.03,2.99,9.69,5.74
	c2.97,3.08,5.96,6.24,8.96,9.46c6.22,6.69,12.15,13.32,17.78,19.85c-24.69-0.87-63.65,0.74-108.15,15.85
	c-11.03,3.75-56.95,20.06-104.3,60.89c-19.89,17.15-62.06,54.39-87.11,118.52C698.82,799.27,694.57,827.5,693,846.78z
	 M776.41,1039.22c-6.95-8.13-16.07-19.88-24.96-35.11c-48.69-83.37-32.06-170.93-29.56-183.11
	c20.15-98.18,90.32-150.32,106.22-161.56c8.05,10.25,16.1,20.5,24.15,30.75c-9.04,6.44-21.67,16.36-34.93,30.25
	c-15.21,15.95-62.03,65.01-67.22,140.78c-5.59,81.69,40.97,139.22,51.78,151.93C793.4,1021.84,784.9,1030.53,776.41,1039.22z
	 M842.33,1020.56c-23.53-22.23-38.12-45.47-46.96-62.67c8.94-6.12,17.88-12.25,26.82-18.37c3.92,5.42,9.75,13.44,16.89,23.11
	c16.71,22.64,25.16,34.07,30.22,39.41c16.89,17.85,34.65,26.55,47.61,32.9c23.27,11.4,45.02,16.34,61.57,18.5
	c-9.18,8.3-18.37,16.6-27.55,24.89C928.11,1073.02,883.21,1059.16,842.33,1020.56z M945.3,1121.59c0.08-7.32,4.45-12.86,6.81-15.4
	c1.61-1.21,3.67-2.76,6.07-4.6c0,0,4.09-3.15,8.15-6.37c70.06-55.61,92.45-86.44,92.45-86.44s38.13-52.5,54.17-58.45
	c3.52-1.3,6.87-0.89,6.87-0.89c5.13,0.63,8.49,4.13,9.68,5.37c1.69,1.75,4.92,5.11,5.17,10.3c0.33,6.74-4.62,11.23-5.37,11.89
	c-17.64,19.01-35.67,38.13-54.08,57.33c-25.26,26.36-50.38,51.98-75.33,76.89c20.67,0.18,55.33-2.16,94.23-18.3
	c44.57-18.49,73.02-46.1,87.33-62.14c8.81,8.59,16.63,16.21,25.44,24.81c-17.27,18.45-45.08,45.5-87.07,65.41
	c-62.35,29.56-119.61,29.33-147.86,27.26C955.85,1144.89,945.17,1133.18,945.3,1121.59z M1327,910.93
	c7.34,7.3,7.36,18.34,6.52,27.85c-4.32,48.75-34.76,96.99-51.63,120.96c-14.23,20.22-25.72,32.99-31.09,38.77
	c-3.7,3.98-19.53,20.82-42.98,39.08c-8.61,6.7-16.99,12.63-25.02,17.89c0,0-11.56,7.56-23.13,13.96
	c-43.91,24.29-93.66,33.59-96.56,34.12c-31.71,5.71-42.3,2.62-48.24-2.68c-2.55-2.27-9.46-9.62-15.65-16.77
	c-3.76-4.34-6.71-8-8.59-10.37c20.62,1.03,50.58,0.37,85.19-8.3c13.99-3.5,68.35-18.24,122.22-64.38
	c17.77-15.22,62.03-54.06,86.74-121.39c10.99-29.94,14.83-56.55,16.22-75.34C1305.46,903.77,1318.67,902.65,1327,910.93z"/>
<g>
	<path class="st1" d="M512.32,1423.42c-5.23-0.8-9.92-1.92-14.07-3.35c-4.15-1.43-7.68-3.23-10.59-5.39
		c-2.91-2.17-5.14-4.71-6.7-7.64c-1.56-2.93-2.34-6.29-2.34-10.08c0-3.84,0.87-7.38,2.6-10.62c1.73-3.24,4.08-6.04,7.03-8.41
		c2.95-2.37,6.4-4.21,10.33-5.53c3.93-1.32,8.1-1.98,12.49-1.98c2.93,0,5.82,0.27,8.68,0.8c2.86,0.54,5.57,1.33,8.13,2.38
		c2.56,1.05,4.88,2.37,6.96,3.95c2.08,1.59,3.8,3.43,5.17,5.53c0.54,0.8,0.85,1.63,0.95,2.48c0.1,0.85,0.05,1.67-0.15,2.48
		c-0.2,0.8-0.51,1.56-0.95,2.28c-0.44,0.71-0.95,1.32-1.54,1.81c-0.64,0.58-1.42,1.07-2.34,1.47c-0.93,0.4-1.93,0.65-3,0.74
		c-1.08,0.09-2.17,0.02-3.3-0.2c-1.12-0.22-2.2-0.67-3.22-1.34c-1.32-0.8-2.48-1.51-3.48-2.11c-1-0.6-2.03-1.12-3.08-1.54
		c-1.05-0.42-2.25-0.75-3.59-0.97c-1.34-0.22-2.99-0.33-4.95-0.33c-2.15,0-4.07,0.23-5.75,0.7c-1.69,0.47-3.11,1.11-4.29,1.91
		c-1.17,0.8-2.08,1.75-2.71,2.85c-0.64,1.09-0.95,2.27-0.95,3.52c0,0.2,0.05,2.41,1.36,3.92c0.94,1.08,2.1,1.31,4.53,1.82
		c1.55,0.32,4.92,1.12,6.89,1.44c1.67,0.28,4.22,0.89,9.33,2.11c5.53,1.32,8.33,2,10.22,2.78c4.78,1.97,7.11,4.05,7.89,4.78
		c1.43,1.34,2.54,2.77,2.89,3.22c0.85,1.1,1.96,2.54,2.78,4.33c1.41,3.1,1.33,5.92,1.22,9.5c-0.05,1.57-0.11,3.4-0.73,5.75
		c-0.43,1.62-1.04,3.18-1.83,4.7c-1.71,3.26-4.07,6.11-7.07,8.54c-3,2.43-6.59,4.35-10.77,5.76s-8.71,2.11-13.59,2.11
		c-3.81,0-7.44-0.45-10.88-1.34c-3.44-0.89-6.59-2.1-9.45-3.62c-2.86-1.52-5.36-3.29-7.51-5.33c-2.15-2.03-3.81-4.19-4.98-6.47
		c-0.73-1.38-1.15-2.7-1.25-3.95c-0.1-1.25,0.05-2.38,0.44-3.38s0.98-1.9,1.76-2.68c0.78-0.78,1.69-1.42,2.71-1.91
		c2.39-1.16,4.63-1.41,6.7-0.74c2.07,0.67,4.21,2.26,6.41,4.76c2.05,2.41,4.41,4.22,7.07,5.43c2.66,1.21,5.9,1.81,9.71,1.81
		c1.76,0,3.49-0.19,5.2-0.57c1.71-0.38,3.23-0.94,4.58-1.67c1.34-0.74,2.42-1.62,3.22-2.65c0.81-1.03,1.21-2.21,1.21-3.55
		c0-1.7-0.42-3.04-1.25-4.02c-0.83-0.98-1.89-1.75-3.19-2.31c-1.3-0.56-2.74-0.97-4.32-1.24
		C515.39,1423.89,513.84,1423.64,512.32,1423.42z"/>
	<path class="st1" d="M635.31,1370.42c4.02,0,7.88,0.53,11.59,1.58c3.71,1.05,7.18,2.51,10.42,4.39c3.24,1.88,6.19,4.14,8.84,6.8
		c2.66,2.66,4.94,5.61,6.83,8.84c1.9,3.24,3.37,6.71,4.42,10.42c1.05,3.71,1.57,7.57,1.57,11.59c0,6.03-1.15,11.68-3.45,16.95
		c-2.3,5.27-5.43,9.88-9.38,13.83c-3.95,3.95-8.58,7.07-13.87,9.35c-5.29,2.28-10.96,3.42-16.99,3.42c-6.03,0-11.69-1.14-16.98-3.42
		c-5.29-2.28-9.89-5.39-13.8-9.35c-3.91-3.95-6.99-8.56-9.25-13.83c-2.26-5.27-3.38-10.92-3.38-16.95c0-4.02,0.51-7.88,1.54-11.59
		c1.03-3.71,2.48-7.18,4.36-10.42c1.88-3.24,4.13-6.19,6.77-8.84c2.64-2.66,5.56-4.92,8.78-6.8s6.68-3.34,10.38-4.39
		C627.43,1370.95,631.29,1370.42,635.31,1370.42z M635.39,1390.64c-3.23,0-6.26,0.62-9.09,1.85c-2.83,1.24-5.29,2.91-7.39,5.03
		c-2.09,2.11-3.75,4.59-4.97,7.42c-1.22,2.83-1.82,5.86-1.82,9.09c0,3.27,0.61,6.33,1.82,9.18c1.22,2.85,2.87,5.33,4.97,7.42
		c2.09,2.09,4.56,3.74,7.39,4.94c2.83,1.2,5.86,1.79,9.09,1.79s6.27-0.6,9.12-1.79c2.85-1.2,5.33-2.84,7.45-4.94
		c2.11-2.09,3.78-4.57,5-7.42c1.22-2.85,1.83-5.91,1.83-9.18c0-3.23-0.61-6.26-1.83-9.09c-1.22-2.83-2.88-5.3-5-7.42
		c-2.11-2.11-4.6-3.79-7.45-5.03C641.66,1391.26,638.62,1390.64,635.39,1390.64z"/>
	<path class="st1" d="M1172.2,1370.42c4.02,0,7.88,0.53,11.59,1.58c3.71,1.05,7.18,2.51,10.42,4.39c3.24,1.88,6.19,4.14,8.84,6.8
		c2.66,2.66,4.94,5.61,6.83,8.84c1.9,3.24,3.37,6.71,4.42,10.42c1.05,3.71,1.57,7.57,1.57,11.59c0,6.03-1.15,11.68-3.45,16.95
		c-2.3,5.27-5.43,9.88-9.38,13.83c-3.95,3.95-8.58,7.07-13.87,9.35c-5.29,2.28-10.96,3.42-16.99,3.42c-6.03,0-11.69-1.14-16.98-3.42
		c-5.29-2.28-9.89-5.39-13.8-9.35c-3.91-3.95-6.99-8.56-9.25-13.83c-2.26-5.27-3.38-10.92-3.38-16.95c0-4.02,0.51-7.88,1.54-11.59
		c1.03-3.71,2.48-7.18,4.36-10.42c1.88-3.24,4.13-6.19,6.77-8.84c2.64-2.66,5.56-4.92,8.78-6.8s6.68-3.34,10.38-4.39
		C1164.32,1370.95,1168.18,1370.42,1172.2,1370.42z M1172.27,1390.64c-3.23,0-6.26,0.62-9.09,1.85c-2.83,1.24-5.29,2.91-7.39,5.03
		c-2.09,2.11-3.75,4.59-4.97,7.42c-1.22,2.83-1.82,5.86-1.82,9.09c0,3.27,0.61,6.33,1.82,9.18c1.22,2.85,2.87,5.33,4.97,7.42
		c2.09,2.09,4.56,3.74,7.39,4.94c2.83,1.2,5.86,1.79,9.09,1.79s6.27-0.6,9.12-1.79c2.85-1.2,5.33-2.84,7.45-4.94
		c2.11-2.09,3.78-4.57,5-7.42c1.22-2.85,1.83-5.91,1.83-9.18c0-3.23-0.61-6.26-1.83-9.09c-1.22-2.83-2.88-5.3-5-7.42
		c-2.11-2.11-4.6-3.79-7.45-5.03C1178.55,1391.26,1175.51,1390.64,1172.27,1390.64z"/>
	<path class="st1" d="M763.03,1437.61l33.7,0.07c1.21,0,2.33,0.23,3.38,0.7c1.47,0.66,2.41,1.52,2.75,1.88
		c1.37,1.41,1.85,2.91,2.1,3.72c0.55,1.75,0.47,3.18,0.41,4.23c-0.05,0.96-0.12,2.09-0.67,3.38c-0.45,1.05-1.06,1.97-1.84,2.75
		c-0.78,0.78-1.7,1.4-2.75,1.84s-2.18,0.65-3.38,0.6h-42.41h-0.4c-0.45,0-0.78-0.02-1-0.07c-0.09-0.04-0.22-0.07-0.4-0.07
		c-2.01-0.4-3.66-1.37-4.96-2.92c-1.3-1.54-1.94-3.38-1.94-5.53v-0.13v-0.33v-68.14c0-1.21,0.22-2.33,0.67-3.38
		c0.45-1.05,1.07-1.95,1.88-2.71c0.8-0.76,1.73-1.36,2.78-1.81c1.05-0.45,2.18-0.67,3.38-0.67s2.33,0.22,3.38,0.67
		c1.05,0.45,1.98,1.05,2.78,1.81c0.8,0.76,1.43,1.67,1.88,2.71c0.45,1.05,0.67,2.18,0.67,3.38V1437.61z"/>
	<path class="st1" d="M1001.65,1388.44v59.76c0,1.21-0.23,2.33-0.7,3.38c-0.47,1.05-1.09,1.95-1.88,2.71
		c-0.78,0.76-1.71,1.36-2.78,1.81c-1.07,0.45-2.21,0.67-3.42,0.67s-2.33-0.22-3.38-0.67c-1.05-0.45-1.97-1.05-2.75-1.81
		c-0.78-0.76-1.4-1.66-1.84-2.71c-0.45-1.05-0.67-2.18-0.67-3.38v-59.76h-17.62c-1.21,0-2.33-0.23-3.38-0.7
		c-1.05-0.47-1.97-1.09-2.75-1.88c-0.78-0.78-1.4-1.71-1.84-2.78c-0.45-1.07-0.67-2.21-0.67-3.42s0.22-2.33,0.67-3.38
		c0.45-1.05,1.06-1.96,1.84-2.75c0.78-0.78,1.7-1.4,2.75-1.84c1.05-0.45,2.18-0.67,3.38-0.67h52.66c1.21,0,2.33,0.23,3.38,0.7
		c1.05,0.47,1.98,1.09,2.78,1.88c0.8,0.78,1.43,1.71,1.88,2.78c0.45,1.07,0.67,2.21,0.67,3.42s-0.22,2.33-0.67,3.38
		c-0.45,1.05-1.07,1.97-1.88,2.75c-0.8,0.78-1.73,1.4-2.78,1.84c-1.05,0.45-2.18,0.67-3.38,0.67H1001.65z"/>
	<path class="st1" d="M1087.86,1448.21c0,1.21-0.22,2.33-0.67,3.38c-0.45,1.05-1.07,1.95-1.88,2.71s-1.73,1.36-2.78,1.81
		c-1.05,0.45-2.18,0.67-3.38,0.67s-2.33-0.22-3.38-0.67c-1.05-0.45-1.98-1.05-2.78-1.81s-1.43-1.66-1.88-2.71
		c-0.45-1.05-0.67-2.18-0.67-3.38v-68.61c0-1.21,0.22-2.33,0.67-3.38c0.45-1.05,1.07-1.95,1.88-2.71c0.8-0.76,1.73-1.36,2.78-1.81
		c1.05-0.45,2.18-0.67,3.38-0.67s2.33,0.22,3.38,0.67c1.05,0.45,1.98,1.05,2.78,1.81c0.8,0.76,1.43,1.67,1.88,2.71
		c0.45,1.05,0.67,2.18,0.67,3.38V1448.21z"/>
	<path class="st1" d="M1266.76,1405.58v42.63c0,1.21-0.22,2.33-0.67,3.38c-0.45,1.05-1.07,1.95-1.88,2.71s-1.73,1.36-2.78,1.81
		c-1.05,0.45-2.18,0.67-3.38,0.67s-2.33-0.22-3.38-0.67c-1.05-0.45-1.98-1.05-2.78-1.81s-1.43-1.66-1.88-2.71
		c-0.45-1.05-0.67-2.18-0.67-3.38v-68.34c0-1.12,0.19-2.15,0.57-3.12c0.38-0.96,0.9-1.82,1.57-2.58c0.71-0.94,1.61-1.7,2.68-2.28
		c1.07-0.58,2.37-0.87,3.89-0.87c1.29,0,2.53,0.28,3.72,0.84c1.18,0.56,2.24,1.37,3.18,2.45l37.95,50.25v-44.96
		c0-1.21,0.23-2.33,0.7-3.38c0.47-1.05,1.11-1.95,1.91-2.71c0.8-0.76,1.74-1.36,2.81-1.81c1.07-0.45,2.21-0.67,3.42-0.67
		c1.21,0,2.33,0.22,3.38,0.67c1.05,0.45,1.95,1.05,2.71,1.81c0.76,0.76,1.36,1.67,1.81,2.71c0.45,1.05,0.67,2.18,0.67,3.38v68.61
		c0,1.34-0.28,2.58-0.84,3.72c-0.56,1.14-1.33,2.11-2.31,2.91c-0.63,0.63-1.37,1.11-2.25,1.44c-0.87,0.33-1.87,0.5-2.98,0.5h-0.33
		h-0.74c-1.16-0.09-2.18-0.41-3.05-0.97c-0.87-0.56-1.69-1.35-2.45-2.38L1266.76,1405.58z"/>
	<path class="st1" d="M1484.16,1442.04h-35.51l-3.89,9.51c-0.49,1.16-1.16,2.13-2.01,2.91c-0.85,0.78-1.8,1.36-2.85,1.74
		c-1.05,0.38-2.18,0.56-3.38,0.54s-2.37-0.28-3.48-0.77c-1.16-0.49-2.12-1.15-2.88-1.98c-0.76-0.83-1.31-1.75-1.64-2.78
		s-0.47-2.11-0.4-3.25c0.07-1.14,0.34-2.29,0.84-3.45l29.41-68.21c0.76-1.7,1.82-3,3.18-3.92c1.36-0.92,2.96-1.37,4.79-1.37
		c1.7,0,3.25,0.46,4.66,1.37c1.41,0.92,2.47,2.2,3.18,3.85l29.61,68.27c0.49,1.12,0.77,2.24,0.84,3.38
		c0.07,1.14-0.06,2.22-0.37,3.25c-0.31,1.03-0.84,1.97-1.58,2.81c-0.74,0.85-1.66,1.52-2.78,2.01c-1.12,0.49-2.26,0.75-3.42,0.77
		c-1.16,0.02-2.28-0.17-3.35-0.57c-1.07-0.4-2.03-0.99-2.88-1.78c-0.85-0.78-1.54-1.73-2.08-2.85L1484.16,1442.04z M1457.69,1420.33
		h17.31l-8.59-21.44L1457.69,1420.33z"/>
	<path class="st1" d="M1540.97,1448.21c0,1.21-0.22,2.33-0.67,3.38c-0.45,1.05-1.07,1.95-1.88,2.71s-1.73,1.36-2.78,1.81
		c-1.05,0.45-2.18,0.67-3.38,0.67s-2.33-0.22-3.38-0.67c-1.05-0.45-1.98-1.05-2.78-1.81s-1.43-1.66-1.88-2.71
		c-0.45-1.05-0.67-2.18-0.67-3.38v-68.61c0-1.21,0.22-2.33,0.67-3.38c0.45-1.05,1.07-1.95,1.88-2.71c0.8-0.76,1.73-1.36,2.78-1.81
		c1.05-0.45,2.18-0.67,3.38-0.67s2.33,0.22,3.38,0.67c1.05,0.45,1.98,1.05,2.78,1.81c0.8,0.76,1.43,1.67,1.88,2.71
		c0.45,1.05,0.67,2.18,0.67,3.38V1448.21z"/>
	<path class="st1" d="M919.37,1381.46v38.73c0,20.21-16.38,36.59-36.59,36.59h0c-20.21,0-36.59-16.38-36.59-36.59v-38.73
		c0-5.77,4.68-10.44,10.44-10.44h0c5.77,0,10.44,4.68,10.44,10.44v41.35c0,8.67,7.03,15.7,15.7,15.7h0c8.67,0,15.7-7.03,15.7-15.7
		v-41.35c0-5.77,4.68-10.44,10.44-10.44h0C914.69,1371.02,919.37,1375.7,919.37,1381.46z"/>
</g>
<g>
	<rect x="675.16" y="-215.89" class="st2" width="50" height="50"/>
	<rect x="842.65" y="-215.89" class="st3" width="50" height="50"/>
	<rect x="1001.55" y="-215.89" class="st4" width="50" height="50"/>
	<rect x="1221.17" y="-215.89" class="st1" width="50" height="50"/>
</g>
</svg>
