<svg version="1.1" id="Layer_1" xmlns="http://www.w3.org/2000/svg" xmlns:xlink="http://www.w3.org/1999/xlink" x="0px" y="0px"
	 width="100%" viewBox="0 0 500 500" enable-background="new 0 0 500 500" xml:space="preserve">
<path fill="#FEFEFE" opacity="1.000000" stroke="none" 
	d="
M501.000000,402.000000 
	C501.000000,434.992859 501.000000,467.985718 501.000000,500.983948 
	C334.376526,500.989288 167.753052,500.989288 1.064783,500.989288 
	C1.064783,334.412598 1.064783,167.825165 1.064783,1.118860 
	C167.551300,1.118860 334.102692,1.118860 501.000000,1.118860 
	C501.000000,130.689789 501.000000,260.379883 500.609558,390.710815 
	C489.348907,389.204834 480.066193,391.009338 473.708862,401.783386 
	C473.708862,398.277557 473.708862,394.771729 473.708862,391.355164 
	C470.122162,391.355164 467.198761,391.355164 464.277832,391.355164 
	C464.277832,414.355011 464.277832,437.077423 464.277832,459.752563 
	C467.656067,459.752563 470.742706,459.752563 474.110291,459.752563 
	C474.110291,450.873901 473.991058,442.242401 474.150574,433.616028 
	C474.264252,427.469818 474.247009,421.252441 475.179901,415.204376 
	C477.107086,402.710083 486.146729,397.423981 498.146637,401.212494 
	C499.086945,401.509308 500.048370,401.739075 501.000000,402.000000 
M470.927551,292.424133 
	C470.951660,248.302338 470.976562,204.180557 470.994690,160.058762 
	C470.995117,159.063583 471.092438,158.009537 470.786713,157.103745 
	C470.673065,156.767120 469.530670,156.777756 468.300018,156.174850 
	C419.477417,123.257294 370.638092,90.364418 321.875092,57.358761 
	C319.049713,55.446350 316.989594,55.290714 313.976105,56.967731 
	C287.596008,71.648376 261.118683,86.154282 234.668961,100.709816 
	C222.088150,107.633171 209.504669,114.551727 196.421448,121.748009 
	C198.226242,123.070702 199.500061,124.071365 200.839157,124.975296 
	C214.901367,134.467789 228.965988,143.956741 243.045364,153.423721 
	C277.687317,176.716980 312.337402,199.998169 346.654144,223.754227 
	C346.458466,224.261856 346.262787,224.769501 345.481964,225.799713 
	C345.436371,270.595154 345.388672,315.390625 345.368561,360.186066 
	C345.368317,360.760468 345.719360,361.335022 345.982269,362.142334 
	C347.149841,361.590057 348.054932,361.217926 348.907745,360.750427 
	C386.536621,340.123383 424.166931,319.499054 461.773987,298.832336 
	C464.800476,297.169098 467.662598,295.206757 470.927551,292.424133 
M31.188091,103.503197 
	C31.129431,103.998245 31.019527,104.493286 31.019398,104.988350 
	C31.007915,148.813583 30.996870,192.638824 31.044394,236.464005 
	C31.045668,237.639664 31.687292,238.814636 32.373764,240.564377 
	C82.141060,274.285553 131.917297,307.993591 181.647415,341.769501 
	C183.963226,343.342377 185.648605,343.577026 188.269852,342.128296 
	C221.180389,323.940063 254.184555,305.921326 287.154968,287.841370 
	C295.074738,283.498413 302.958740,279.090179 311.169403,274.540070 
	C310.157959,273.647797 309.709076,273.155365 309.172607,272.792267 
	C259.801422,239.376205 210.427353,205.964447 161.023560,172.596649 
	C159.839706,171.797058 158.319351,171.495682 157.020844,170.033722 
	C157.020844,124.801918 157.020844,79.570122 157.020844,33.712524 
	C155.106812,34.630344 153.778427,35.190155 152.522079,35.881008 
	C115.359993,56.316040 78.198418,76.752029 41.060898,97.231628 
	C37.894840,98.977562 34.896629,101.027863 31.188091,103.503197 
M81.268562,400.911530 
	C83.193962,395.810699 85.119362,390.709869 87.044762,385.609039 
	C87.495972,385.723328 87.947174,385.837616 88.398376,385.951904 
	C88.398376,410.492859 88.398376,435.033813 88.398376,459.684326 
	C92.130074,459.684326 95.335411,459.684326 98.524590,459.684326 
	C98.524590,429.285858 98.524590,399.215393 98.524590,368.976746 
	C93.292664,368.976746 88.340576,368.976746 83.284592,368.976746 
	C74.032021,394.764679 64.826057,420.422699 55.620094,446.080719 
	C55.214291,446.053894 54.808487,446.027039 54.402687,446.000214 
	C45.191902,420.308380 35.981117,394.616547 26.817825,369.057190 
	C21.349920,369.057190 16.261526,369.057190 11.212702,369.057190 
	C11.212702,399.516174 11.212702,429.707794 11.212702,459.778687 
	C14.515890,459.778687 17.460760,459.778687 21.123892,459.778687 
	C21.123892,434.976837 21.123892,410.399506 21.123892,385.822144 
	C21.541178,385.763184 21.958464,385.704193 22.375751,385.645233 
	C31.384157,410.469330 40.392563,435.293427 49.299782,459.838715 
	C53.258888,459.838715 56.553261,459.838715 60.057091,459.838715 
	C67.073082,440.391663 74.058723,421.028778 81.268562,400.911530 
M418.500122,427.955444 
	C424.664551,427.955444 430.828949,427.955414 436.993378,427.955414 
	C446.085419,427.955383 446.127625,427.953613 445.725861,418.564514 
	C445.313080,408.918701 443.147736,400.004028 434.429260,394.245483 
	C418.726868,383.874146 395.282959,391.053345 389.122467,408.791656 
	C386.791290,415.503967 385.979584,423.188416 386.378723,430.323242 
	C387.699005,453.924225 405.639740,466.281250 428.498505,460.024902 
	C436.344818,457.877380 441.705475,452.925720 444.913147,445.230347 
	C442.384125,443.745667 440.117462,442.414978 437.893372,441.109314 
	C429.029175,451.765594 420.079468,454.759125 409.537018,450.760284 
	C401.379517,447.666077 396.940338,439.676117 397.118164,427.955444 
	C403.901520,427.955444 410.700836,427.955444 418.500122,427.955444 
M325.510437,427.956757 
	C337.333649,427.955872 349.156830,427.954651 360.980042,427.954163 
	C372.585907,427.953705 372.662415,427.949860 372.012024,416.107941 
	C371.515564,407.068420 368.635590,399.130432 360.541260,394.023895 
	C344.075714,383.636200 320.884460,391.573792 315.100006,410.110413 
	C313.169128,416.298065 312.721405,423.219727 312.946014,429.759491 
	C313.712860,452.089935 327.781097,464.083954 352.009064,460.697266 
	C361.138641,459.421082 367.685089,454.188019 371.414215,445.172882 
	C368.755280,443.663879 366.407562,442.331512 364.118683,441.032532 
	C357.119446,451.393158 347.359711,454.715179 336.469025,450.898315 
	C327.673828,447.815826 321.171997,435.354797 325.510437,427.956757 
M158.995453,446.439453 
	C166.296280,459.167267 177.969315,462.401764 191.475235,460.923126 
	C203.282593,459.630432 211.579483,453.160004 215.545731,441.949371 
	C219.382401,431.105042 219.372223,419.976593 215.499283,409.119141 
	C210.955521,396.381165 200.543610,389.809967 185.918228,389.886383 
	C171.664368,389.960846 161.332550,396.629364 157.013718,409.330902 
	C152.848984,421.579193 153.115295,433.850983 158.995453,446.439453 
M294.077057,424.501831 
	C294.030975,420.008789 294.260559,415.492096 293.877594,411.027954 
	C293.216492,403.321960 291.081818,396.226471 283.451904,392.373993 
	C271.877594,386.529968 257.826782,389.907501 249.969604,400.306458 
	C249.470184,400.967468 248.710922,401.432098 247.345154,402.621643 
	C247.345154,398.237549 247.345154,394.801086 247.345154,391.347900 
	C243.974106,391.347900 241.057526,391.347900 238.088135,391.347900 
	C238.088135,414.319397 238.088135,437.021332 238.088135,459.767365 
	C241.445343,459.767365 244.525238,459.767365 247.968323,459.767365 
	C247.968323,447.587494 247.675980,435.631042 248.106903,423.700745 
	C248.288681,418.667786 249.221130,413.360565 251.178818,408.759460 
	C254.633972,400.638855 264.632660,396.924683 274.178375,399.233063 
	C280.863525,400.849670 283.879669,405.801788 283.937439,415.707458 
	C284.015076,429.022095 283.952728,442.337524 283.971893,455.652618 
	C283.973938,457.076141 284.118561,458.499481 284.184906,459.703064 
	C287.732971,459.703064 290.817383,459.703064 294.077026,459.703064 
	C294.077026,448.101929 294.077026,436.801483 294.077057,424.501831 
M124.411026,452.389526 
	C124.411026,454.843445 124.411026,457.297394 124.411026,459.661072 
	C128.158447,459.661072 131.375824,459.661072 134.417892,459.661072 
	C134.417892,436.601715 134.417892,413.920654 134.417892,391.338623 
	C130.953003,391.338623 127.868011,391.338623 124.411064,391.338623 
	C124.411064,411.562073 124.411064,431.490204 124.411026,452.389526 
M130.997574,363.667450 
	C126.321472,363.104889 123.242836,364.980560 122.355392,369.696411 
	C121.649620,373.446869 124.242928,377.060791 128.082764,377.700073 
	C131.937164,378.341766 134.942520,376.960541 136.445511,373.173767 
	C137.969620,369.333740 136.293198,366.108704 130.997574,363.667450 
z"/>
<path fill="#030303" opacity="1.000000" stroke="none" 
	d="
M501.000000,401.541931 
	C500.048370,401.739075 499.086945,401.509308 498.146637,401.212494 
	C486.146729,397.423981 477.107086,402.710083 475.179901,415.204376 
	C474.247009,421.252441 474.264252,427.469818 474.150574,433.616028 
	C473.991058,442.242401 474.110291,450.873901 474.110291,459.752563 
	C470.742706,459.752563 467.656067,459.752563 464.277832,459.752563 
	C464.277832,437.077423 464.277832,414.355011 464.277832,391.355164 
	C467.198761,391.355164 470.122162,391.355164 473.708862,391.355164 
	C473.708862,394.771729 473.708862,398.277557 473.708862,401.783386 
	C480.066193,391.009338 489.348907,389.204834 500.609558,391.175812 
	C501.000000,394.361298 501.000000,397.722565 501.000000,401.541931 
z"/>
<path fill="#FFDE59" opacity="1.000000" stroke="none" 
	d="
M156.955963,170.961914 
	C158.319351,171.495682 159.839706,171.797058 161.023560,172.596649 
	C210.427353,205.964447 259.801422,239.376205 309.172607,272.792267 
	C309.709076,273.155365 310.157959,273.647797 311.169403,274.540070 
	C302.958740,279.090179 295.074738,283.498413 287.154968,287.841370 
	C254.184555,305.921326 221.180389,323.940063 188.269852,342.128296 
	C185.648605,343.577026 183.963226,343.342377 181.647415,341.769501 
	C131.917297,307.993591 82.141060,274.285553 32.394348,239.998413 
	C64.676849,221.743500 96.955101,204.084229 129.190140,186.346436 
	C138.174500,181.402649 147.031128,176.226761 156.196259,171.095642 
	C156.616104,171.009933 156.786026,170.985931 156.955963,170.961914 
z"/>
<path fill="#085C89" opacity="1.000000" stroke="none" 
	d="
M346.984192,223.284210 
	C312.337402,199.998169 277.687317,176.716980 243.045364,153.423721 
	C228.965988,143.956741 214.901367,134.467789 200.839157,124.975296 
	C199.500061,124.071365 198.226242,123.070702 196.421448,121.748009 
	C209.504669,114.551727 222.088150,107.633171 234.668961,100.709816 
	C261.118683,86.154282 287.596008,71.648376 313.976105,56.967731 
	C316.989594,55.290714 319.049713,55.446350 321.875092,57.358761 
	C370.638092,90.364418 419.477417,123.257294 468.335632,156.586182 
	C467.680023,157.443695 467.013214,157.934113 466.294159,158.329636 
	C439.837921,172.882431 413.405304,187.478546 386.904358,201.949509 
	C373.662689,209.180191 360.294922,216.179977 346.984192,223.284210 
z"/>
<path fill="#799348" opacity="1.000000" stroke="none" 
	d="
M156.988403,170.497818 
	C156.786026,170.985931 156.616104,171.009933 155.850555,171.009338 
	C148.443359,167.296173 141.616440,163.635620 134.823013,159.913925 
	C111.098671,146.916748 87.365509,133.935440 63.677967,120.871475 
	C53.007362,114.986488 42.436543,108.920578 31.820446,102.936768 
	C34.896629,101.027863 37.894840,98.977562 41.060898,97.231628 
	C78.198418,76.752029 115.359993,56.316040 152.522079,35.881008 
	C153.778427,35.190155 155.106812,34.630344 157.020844,33.712524 
	C157.020844,79.570122 157.020844,124.801918 156.988403,170.497818 
z"/>
<path fill="#7A944A" opacity="1.000000" stroke="none" 
	d="
M470.601105,293.383423 
	C467.662598,295.206757 464.800476,297.169098 461.773987,298.832336 
	C424.166931,319.499054 386.536621,340.123383 348.907745,360.750427 
	C348.054932,361.217926 347.149841,361.590057 345.982269,362.142334 
	C345.719360,361.335022 345.368317,360.760468 345.368561,360.186066 
	C345.388672,315.390625 345.436371,270.595154 346.031494,225.730652 
	C356.518066,231.078522 366.458984,236.488464 376.391541,241.913666 
	C407.796417,259.067200 439.198151,276.226410 470.601105,293.383423 
z"/>
<path fill="#0DC0DF" opacity="1.000000" stroke="none" 
	d="
M470.764343,292.903778 
	C439.198151,276.226410 407.796417,259.067200 376.391541,241.913666 
	C366.458984,236.488464 356.518066,231.078522 346.324036,225.469376 
	C346.262787,224.769501 346.458466,224.261856 346.819153,223.519226 
	C360.294922,216.179977 373.662689,209.180191 386.904358,201.949509 
	C413.405304,187.478546 439.837921,172.882431 466.294159,158.329636 
	C467.013214,157.934113 467.680023,157.443695 468.614319,156.813782 
	C469.530670,156.777756 470.673065,156.767120 470.786713,157.103745 
	C471.092438,158.009537 470.995117,159.063583 470.994690,160.058762 
	C470.976562,204.180557 470.951660,248.302338 470.764343,292.903778 
z"/>
<path fill="#FF914D" opacity="1.000000" stroke="none" 
	d="
M31.504269,103.219986 
	C42.436543,108.920578 53.007362,114.986488 63.677967,120.871475 
	C87.365509,133.935440 111.098671,146.916748 134.823013,159.913925 
	C141.616440,163.635620 148.443359,167.296173 155.600647,171.071045 
	C147.031128,176.226761 138.174500,181.402649 129.190140,186.346436 
	C96.955101,204.084229 64.676849,221.743500 32.222618,239.711197 
	C31.687292,238.814636 31.045668,237.639664 31.044394,236.464005 
	C30.996870,192.638824 31.007915,148.813583 31.019398,104.988350 
	C31.019527,104.493286 31.129431,103.998245 31.504269,103.219986 
z"/>
<path fill="#060606" opacity="1.000000" stroke="none" 
	d="
M81.156464,401.288696 
	C74.058723,421.028778 67.073082,440.391663 60.057091,459.838715 
	C56.553261,459.838715 53.258888,459.838715 49.299782,459.838715 
	C40.392563,435.293427 31.384157,410.469330 22.375751,385.645233 
	C21.958464,385.704193 21.541178,385.763184 21.123892,385.822144 
	C21.123892,410.399506 21.123892,434.976837 21.123892,459.778687 
	C17.460760,459.778687 14.515890,459.778687 11.212702,459.778687 
	C11.212702,429.707794 11.212702,399.516174 11.212702,369.057190 
	C16.261526,369.057190 21.349920,369.057190 26.817825,369.057190 
	C35.981117,394.616547 45.191902,420.308380 54.402687,446.000214 
	C54.808487,446.027039 55.214291,446.053894 55.620094,446.080719 
	C64.826057,420.422699 74.032021,394.764679 83.284592,368.976746 
	C88.340576,368.976746 93.292664,368.976746 98.524590,368.976746 
	C98.524590,399.215393 98.524590,429.285858 98.524590,459.684326 
	C95.335411,459.684326 92.130074,459.684326 88.398376,459.684326 
	C88.398376,435.033813 88.398376,410.492859 88.398376,385.951904 
	C87.947174,385.837616 87.495972,385.723328 87.044762,385.609039 
	C85.119362,390.709869 83.193962,395.810699 81.156464,401.288696 
z"/>
<path fill="#080808" opacity="1.000000" stroke="none" 
	d="
M418.000122,427.955444 
	C410.700836,427.955444 403.901520,427.955444 397.118164,427.955444 
	C396.940338,439.676117 401.379517,447.666077 409.537018,450.760284 
	C420.079468,454.759125 429.029175,451.765594 437.893372,441.109314 
	C440.117462,442.414978 442.384125,443.745667 444.913147,445.230347 
	C441.705475,452.925720 436.344818,457.877380 428.498505,460.024902 
	C405.639740,466.281250 387.699005,453.924225 386.378723,430.323242 
	C385.979584,423.188416 386.791290,415.503967 389.122467,408.791656 
	C395.282959,391.053345 418.726868,383.874146 434.429260,394.245483 
	C443.147736,400.004028 445.313080,408.918701 445.725861,418.564514 
	C446.127625,427.953613 446.085419,427.955383 436.993378,427.955414 
	C430.828949,427.955414 424.664551,427.955444 418.000122,427.955444 
M400.914948,406.560760 
	C399.472687,410.554565 398.030396,414.548340 396.434753,418.966827 
	C410.030060,418.966827 422.700378,418.966827 435.540863,418.966827 
	C435.053314,410.420319 433.609344,402.863831 424.708496,399.596130 
	C416.324036,396.517975 407.016449,399.091492 400.914948,406.560760 
z"/>
<path fill="#080808" opacity="1.000000" stroke="none" 
	d="
M325.011902,427.970703 
	C321.171997,435.354797 327.673828,447.815826 336.469025,450.898315 
	C347.359711,454.715179 357.119446,451.393158 364.118683,441.032532 
	C366.407562,442.331512 368.755280,443.663879 371.414215,445.172882 
	C367.685089,454.188019 361.138641,459.421082 352.009064,460.697266 
	C327.781097,464.083954 313.712860,452.089935 312.946014,429.759491 
	C312.721405,423.219727 313.169128,416.298065 315.100006,410.110413 
	C320.884460,391.573792 344.075714,383.636200 360.541260,394.023895 
	C368.635590,399.130432 371.515564,407.068420 372.012024,416.107941 
	C372.662415,427.949860 372.585907,427.953705 360.980042,427.954163 
	C349.156830,427.954651 337.333649,427.955872 325.011902,427.970703 
M359.340057,419.366730 
	C360.226410,418.746002 361.766846,418.237457 361.895630,417.486786 
	C362.921112,411.508636 358.417236,402.997559 353.053436,400.314087 
	C338.991028,393.278717 323.739380,403.084778 324.177246,419.367676 
	C335.562622,419.367676 346.967529,419.367676 359.340057,419.366730 
z"/>
<path fill="#060606" opacity="1.000000" stroke="none" 
	d="
M158.823151,446.106812 
	C153.115295,433.850983 152.848984,421.579193 157.013718,409.330902 
	C161.332550,396.629364 171.664368,389.960846 185.918228,389.886383 
	C200.543610,389.809967 210.955521,396.381165 215.499283,409.119141 
	C219.372223,419.976593 219.382401,431.105042 215.545731,441.949371 
	C211.579483,453.160004 203.282593,459.630432 191.475235,460.923126 
	C177.969315,462.401764 166.296280,459.167267 158.823151,446.106812 
M174.646133,401.923035 
	C171.982651,405.591125 168.333786,408.904999 166.861420,413.001221 
	C163.824203,421.451019 164.160782,430.339539 166.915604,438.939423 
	C169.806763,447.964813 176.455292,452.230499 186.810867,452.101776 
	C196.546524,451.980774 203.637161,447.330963 205.692734,438.330902 
	C207.036758,432.446320 207.411179,426.140137 207.027084,420.098602 
	C205.879761,402.052307 191.996521,394.109985 174.646133,401.923035 
z"/>
<path fill="#030303" opacity="1.000000" stroke="none" 
	d="
M294.077026,425.001465 
	C294.077026,436.801483 294.077026,448.101929 294.077026,459.703064 
	C290.817383,459.703064 287.732971,459.703064 284.184906,459.703064 
	C284.118561,458.499481 283.973938,457.076141 283.971893,455.652618 
	C283.952728,442.337524 284.015076,429.022095 283.937439,415.707458 
	C283.879669,405.801788 280.863525,400.849670 274.178375,399.233063 
	C264.632660,396.924683 254.633972,400.638855 251.178818,408.759460 
	C249.221130,413.360565 248.288681,418.667786 248.106903,423.700745 
	C247.675980,435.631042 247.968323,447.587494 247.968323,459.767365 
	C244.525238,459.767365 241.445343,459.767365 238.088135,459.767365 
	C238.088135,437.021332 238.088135,414.319397 238.088135,391.347900 
	C241.057526,391.347900 243.974106,391.347900 247.345154,391.347900 
	C247.345154,394.801086 247.345154,398.237549 247.345154,402.621643 
	C248.710922,401.432098 249.470184,400.967468 249.969604,400.306458 
	C257.826782,389.907501 271.877594,386.529968 283.451904,392.373993 
	C291.081818,396.226471 293.216492,403.321960 293.877594,411.027954 
	C294.260559,415.492096 294.030975,420.008789 294.077026,425.001465 
z"/>
<path fill="#141414" opacity="1.000000" stroke="none" 
	d="
M124.411041,451.903931 
	C124.411064,431.490204 124.411064,411.562073 124.411064,391.338623 
	C127.868011,391.338623 130.953003,391.338623 134.417892,391.338623 
	C134.417892,413.920654 134.417892,436.601715 134.417892,459.661072 
	C131.375824,459.661072 128.158447,459.661072 124.411026,459.661072 
	C124.411026,457.297394 124.411026,454.843445 124.411041,451.903931 
z"/>
<path fill="#0B0B0B" opacity="1.000000" stroke="none" 
	d="
M131.364517,363.742188 
	C136.293198,366.108704 137.969620,369.333740 136.445511,373.173767 
	C134.942520,376.960541 131.937164,378.341766 128.082764,377.700073 
	C124.242928,377.060791 121.649620,373.446869 122.355392,369.696411 
	C123.242836,364.980560 126.321472,363.104889 131.364517,363.742188 
z"/>
<path fill="#FBFBFB" opacity="1.000000" stroke="none" 
	d="
M401.101562,406.238770 
	C407.016449,399.091492 416.324036,396.517975 424.708496,399.596130 
	C433.609344,402.863831 435.053314,410.420319 435.540863,418.966827 
	C422.700378,418.966827 410.030060,418.966827 396.434753,418.966827 
	C398.030396,414.548340 399.472687,410.554565 401.101562,406.238770 
z"/>
<path fill="#FCFCFC" opacity="1.000000" stroke="none" 
	d="
M358.856262,419.367188 
	C346.967529,419.367676 335.562622,419.367676 324.177246,419.367676 
	C323.739380,403.084778 338.991028,393.278717 353.053436,400.314087 
	C358.417236,402.997559 362.921112,411.508636 361.895630,417.486786 
	C361.766846,418.237457 360.226410,418.746002 358.856262,419.367188 
z"/>
<path fill="#FCFCFC" opacity="1.000000" stroke="none" 
	d="
M174.964264,401.719391 
	C191.996521,394.109985 205.879761,402.052307 207.027084,420.098602 
	C207.411179,426.140137 207.036758,432.446320 205.692734,438.330902 
	C203.637161,447.330963 196.546524,451.980774 186.810867,452.101776 
	C176.455292,452.230499 169.806763,447.964813 166.915604,438.939423 
	C164.160782,430.339539 163.824203,421.451019 166.861420,413.001221 
	C168.333786,408.904999 171.982651,405.591125 174.964264,401.719391 
z"/>
</svg>